<svg xmlns="http://www.w3.org/2000/svg" width="160" height="17" viewBox="0 0 160 17">
    <g fill="none" fill-rule="evenodd">
        <path d="M-6-7h180v30H-6z"/>
        <g fill="#FFF">
            <path d="M159.512 16.423h-3.038V9.62c0-2.574-1.185-4.473-3.373-4.473s-3.373 1.899-3.373 4.473v6.801h-3.039V9.621c0-4.167 2.613-7.108 6.412-7.108 3.798 0 6.411 2.941 6.411 7.108v6.802zm-20.868.306c-3.798 0-6.411-2.942-6.411-7.108 0-4.167 2.613-7.108 6.411-7.108 3.798 0 6.412 2.94 6.412 7.108 0 4.166-2.614 7.108-6.412 7.108zm0-11.581c-2.188 0-3.373 1.9-3.373 4.473s1.185 4.473 3.373 4.473c2.189 0 3.374-1.9 3.374-4.473 0-2.574-1.185-4.473-3.374-4.473zm-8.623 11.274h-3.039V3.356l3.039-.537v13.603zm-15.356-4.227c1.276 1.256 2.979 1.99 4.558 1.99 1.277 0 2.34-.428 2.34-1.439 0-.889-.73-1.256-1.793-1.593l-1.458-.46c-2.249-.704-3.647-1.777-3.647-4.105 0-2.482 2.188-4.075 5.075-4.075 1.58 0 2.917.429 4.041 1.195v3.094c-1.155-1.01-2.461-1.746-4.041-1.746-1.215 0-2.158.49-2.158 1.41 0 .888.578 1.194 1.733 1.562l1.762.551c2.249.705 3.434 1.93 3.434 4.014 0 2.635-2.31 4.135-5.318 4.135-1.702 0-3.464-.52-4.528-1.409v-3.124zm-2.703 4.227h-3.04V3.356l3.04-.537v13.603zm-13.645 0L92.197 0h3.25l4.51 12.777L104.412 0h3.16l-6.124 16.422h-3.13zm-16.046-4.227c1.276 1.256 2.978 1.99 4.558 1.99 1.276 0 2.34-.428 2.34-1.439 0-.889-.73-1.256-1.793-1.593l-1.458-.46c-2.25-.704-3.647-1.777-3.647-4.105 0-2.482 2.188-4.075 5.074-4.075 1.58 0 2.918.429 4.042 1.195v3.094c-1.155-1.01-2.461-1.746-4.042-1.746-1.215 0-2.157.49-2.157 1.41 0 .888.577 1.194 1.733 1.562l1.762.551c2.248.705 3.433 1.93 3.433 4.014 0 2.635-2.31 4.135-5.317 4.135-1.702 0-3.464-.52-4.528-1.409v-3.124zM67.498 2.822h3.039v6.802c0 2.574 1.185 4.474 3.373 4.474s3.373-1.9 3.373-4.474V2.823h3.038v6.801c0 4.167-2.613 7.108-6.411 7.108-3.799 0-6.412-2.941-6.412-7.108V2.822zm-5.946-.31c1.307 0 2.674.307 3.676 1.134V6.65c-.941-.95-2.157-1.41-3.464-1.41-2.157 0-3.89 1.686-3.89 4.382 0 2.696 1.733 4.38 3.89 4.38 1.307 0 2.523-.459 3.464-1.408v3.002c-1.002.827-2.37 1.134-3.676 1.134-3.677 0-6.716-2.727-6.716-7.108s3.039-7.108 6.716-7.108zM46.525 16.73c-3.799 0-6.412-2.942-6.412-7.108 0-4.167 2.613-7.108 6.412-7.108 3.798 0 6.41 2.94 6.41 7.108 0 4.166-2.612 7.108-6.41 7.108zm0-11.581c-2.188 0-3.373 1.9-3.373 4.473s1.185 4.473 3.373 4.473c2.187 0 3.372-1.9 3.372-4.473 0-2.574-1.185-4.473-3.372-4.473zM28.445 0h11.911l-1.03 2.819h-7.721v3.636h6.37l-.991 2.788h-5.379v7.195h-3.16V0zM16.342 0l-4.144 11.273 2.007 5.46L20.357 0h-4.015zM0 0l1.25 3.4h8.052L8.052 0H0zm2.06 5.603l1.25 3.399h8.052l-1.25-3.399H2.06z"/>
        </g>
    </g>
</svg>
