<?xml version="1.0" standalone="no"?><!-- Generator: Adobe Fireworks CS6, Export SVG Extension by Aaron Beall (http://fireworks.abeall.com) . Version: 0.6.0  --><!DOCTYPE svg PUBLIC "-//W3C//DTD SVG 1.1//EN" "http://www.w3.org/Graphics/SVG/1.1/DTD/svg11.dtd"><svg id="" viewBox="0 0 251 39" style="background-color:#ffffff00" version="1.1"	xmlns="http://www.w3.org/2000/svg" xmlns:xlink="http://www.w3.org/1999/xlink" xml:space="preserve"	x="0px" y="0px" width="251px" height="39px">	<g id="Layer%201">		<g>			<path d="M 34.228 27.7529 L 30.8149 27.7529 L 30.8149 3.5813 L 23.0081 3.5813 L 23.0081 0.597 L 42.0543 0.597 L 42.0543 3.5813 L 34.228 3.5813 L 34.228 27.7529 Z" fill="#ffffff"/>			<path d="M 62.1273 24.7691 L 62.1273 27.754 L 44.4984 27.754 L 44.4984 0.597 L 61.7474 0.597 L 61.7474 3.5813 L 47.9127 3.5813 L 47.9127 12.2156 L 58.8933 12.2156 L 58.8933 14.9815 L 47.9127 14.9815 L 47.9127 24.7691 L 62.1273 24.7691 Z" fill="#ffffff"/>			<path d="M 76.9487 17.2687 L 72.7269 4.2177 L 68.5115 17.2687 L 76.9487 17.2687 ZM 83.9018 27.7529 L 80.4161 27.7529 L 77.676 19.815 L 67.5627 19.815 L 65.125 27.7529 L 62.2703 27.7529 L 71.1263 0.597 L 74.9884 0.597 L 83.9018 27.7529 Z" fill="#ffffff"/>			<path d="M 112.415 27.7529 L 109.1011 27.7529 L 109.1011 4.0393 L 100.2551 27.7529 L 97.9392 27.7529 L 88.9962 4.0393 L 88.9962 27.7529 L 86.102 27.7529 L 86.102 0.597 L 91.1551 0.597 L 99.3873 22.3165 L 107.425 0.597 L 112.415 0.597 L 112.415 27.7529 Z" fill="#ffffff"/>			<path d="M 114.0237 26.938 C 114.0237 26.42 113.9841 25.823 113.9038 25.1471 C 116.423 26.3411 118.7235 26.938 120.802 26.938 C 121.9889 26.938 123.0612 26.7461 124.0219 26.3611 C 124.9813 25.9772 125.7239 25.4038 126.2502 24.642 C 126.7784 23.8813 127.0408 23.0088 127.0408 22.0292 C 127.0408 21.5394 126.9581 21.0754 126.7927 20.6374 C 126.6278 20.2012 126.3555 19.7502 125.978 19.2863 C 125.6005 18.823 125.0575 18.2301 124.3474 17.5077 C 123.6372 16.7865 122.3617 15.6615 120.5214 14.1355 L 118.9421 12.8208 C 118.3956 12.3434 117.8693 11.8453 117.3623 11.3284 C 116.8554 10.8109 116.4354 10.3299 116.1027 9.8848 C 115.7684 9.4403 115.5197 9.0424 115.3524 8.6903 C 115.1852 8.3382 115.0558 7.9497 114.9625 7.5252 C 114.8686 7.1013 114.8225 6.6633 114.8225 6.2123 C 114.8225 5.1367 115.1149 4.1347 115.701 3.2051 C 116.2865 2.2772 117.1591 1.5401 118.317 0.995 C 119.4744 0.4516 120.9449 0.179 122.7279 0.179 C 123.9662 0.179 125.5437 0.3585 127.4603 0.7165 C 127.4733 1.2205 127.5336 1.778 127.6399 2.3879 C 126.4128 2.0035 125.3925 1.7438 124.5795 1.6114 C 123.7665 1.4801 122.9933 1.4124 122.2601 1.4124 C 120.9402 1.4124 119.8531 1.6284 118.9995 2.06 C 118.1464 2.4915 117.487 3.0691 117.0197 3.7914 C 116.5541 4.5162 116.3202 5.2756 116.3202 6.0716 C 116.3202 6.4973 116.3868 6.9117 116.5199 7.3168 C 116.6534 7.7206 116.8719 8.1333 117.1757 8.5513 C 117.4781 8.9688 117.8823 9.4268 118.3856 9.9249 C 118.8889 10.4229 119.4868 10.9893 120.1775 11.6275 C 120.8699 12.2639 121.7892 13.0805 122.9376 14.076 C 124.0845 15.071 124.8951 15.7786 125.3682 16.196 C 125.8416 16.614 126.2917 17.0615 126.7188 17.5401 C 127.1448 18.0176 127.4922 18.4927 127.7581 18.9631 C 128.0239 19.4341 128.2212 19.9227 128.3488 20.4267 C 128.4741 20.9306 128.5391 21.4622 128.5391 22.0198 C 128.5391 23.2679 128.2212 24.3618 127.5903 25.3037 C 126.9569 26.2469 126.0252 26.9604 124.7946 27.4455 C 123.5634 27.9283 122.1826 28.1709 120.6519 28.1709 C 119.6671 28.1709 118.7087 28.0955 117.777 27.9424 C 116.8454 27.7905 115.5946 27.455 114.0237 26.938 L 114.0237 26.938 Z" fill="#ffffff"/>			<path d="M 140.9447 8.3559 C 139.3613 8.3559 137.889 8.7409 136.5314 9.5086 C 135.1749 10.2769 134.1777 11.4497 133.5372 13.0257 C 132.8979 14.6029 132.579 16.332 132.579 18.213 C 132.579 19.5377 132.7621 20.7834 133.1284 21.9491 C 133.4948 23.1148 134.0831 24.0992 134.8948 24.901 C 135.7067 25.7029 136.5822 26.2587 137.5204 26.5707 C 138.4597 26.8815 139.4465 27.037 140.4862 27.037 C 141.6702 27.037 142.7809 26.845 143.8195 26.4612 C 144.8582 26.0761 145.7727 25.4344 146.5643 24.5337 C 147.356 23.6329 147.9385 22.5261 148.312 21.2138 C 148.6854 19.9033 148.8708 18.5121 148.8708 17.0409 C 148.8708 15.6762 148.6877 14.3945 148.3214 13.1959 C 147.9551 11.996 147.3867 11.0364 146.614 10.314 C 145.8424 9.5916 144.9645 9.0853 143.979 8.7939 C 142.9948 8.5019 141.9833 8.3559 140.9447 8.3559 L 140.9447 8.3559 ZM 140.9848 7.242 C 142.222 7.242 143.4202 7.4145 144.5781 7.7595 C 145.7361 8.1039 146.757 8.6915 147.6432 9.5198 C 148.527 10.3493 149.2029 11.4332 149.6696 12.7726 C 150.134 14.1119 150.3679 15.5313 150.3679 17.0303 C 150.3679 18.6481 150.121 20.2 149.6294 21.6854 C 149.1367 23.1713 148.4384 24.4147 147.5333 25.4156 C 146.6282 26.4176 145.5671 27.1229 144.3489 27.5339 C 143.1307 27.946 141.8368 28.152 140.465 28.152 C 139.5067 28.152 138.5661 28.0425 137.6398 27.8235 C 136.7145 27.6045 135.8508 27.2359 135.0449 26.719 C 134.2391 26.2021 133.5337 25.5322 132.9288 24.7091 C 132.3225 23.8872 131.8641 22.9123 131.5521 21.7855 C 131.2379 20.658 131.0818 19.4835 131.0818 18.2637 C 131.0818 16.1283 131.4812 14.1749 132.28 12.4046 C 133.0787 10.6337 134.2734 9.3314 135.8638 8.4948 C 137.4542 7.6594 139.1616 7.242 140.9848 7.242 L 140.9848 7.242 Z" fill="#ffffff"/>			<path d="M 153.7308 27.7529 L 154.09 20.711 L 154.4479 8.7739 L 151.9135 8.7739 C 151.9666 8.4159 151.9998 8.0444 152.0127 7.66 L 154.4764 7.66 C 154.5449 5.7366 154.5992 4.6098 154.6406 4.2777 C 154.7209 3.5748 154.8403 3.0202 155.001 2.6163 C 155.1605 2.2113 155.3673 1.8639 155.6201 1.5725 C 155.873 1.2805 156.2097 1.0115 156.6292 0.7659 C 157.0486 0.521 157.5379 0.3315 158.0991 0.199 C 158.6581 0.0665 159.3032 0 160.0358 0 C 160.4623 0 160.8984 0.0265 161.3462 0.0795 C 161.7928 0.1325 162.4013 0.239 163.1741 0.398 C 163.2001 0.796 163.2604 1.254 163.3537 1.7715 C 162.1024 1.3335 160.9645 1.1139 159.9389 1.1139 C 159.3682 1.1139 158.8506 1.1916 158.391 1.3435 C 157.9326 1.4966 157.5638 1.6785 157.2838 1.8904 C 157.005 2.103 156.7686 2.3744 156.5748 2.7058 C 156.3823 3.0373 156.2393 3.4029 156.1471 3.8003 C 156.0526 4.1983 155.9876 4.7882 155.9462 5.5706 C 155.9462 5.7296 155.9286 6.4266 155.8943 7.66 L 161.8365 7.66 C 161.7822 8.005 161.7502 8.3765 161.7361 8.7739 L 155.8459 8.7739 L 155.3885 27.7529 C 155.0423 27.7399 154.7623 27.734 154.5496 27.734 C 154.3499 27.734 154.077 27.7399 153.7308 27.7529 L 153.7308 27.7529 Z" fill="#ffffff"/>			<path d="M 170.4078 26.5 C 170.3027 26.898 170.2224 27.3148 170.1703 27.7529 C 169.0904 28.0178 168.1002 28.1508 167.1951 28.1508 C 166.4365 28.1508 165.7606 28.0684 165.1698 27.9024 C 164.5767 27.7375 164.0934 27.4385 163.7212 27.0075 C 163.3478 26.5766 163.1021 26.0985 162.9827 25.5757 C 162.8621 25.0506 162.8031 24.4901 162.8031 23.8931 C 162.8031 23.7883 162.8055 23.6223 162.8125 23.3962 C 162.8196 23.1713 162.842 22.6744 162.8834 21.9044 L 163.5498 8.7339 L 161.0839 8.7339 C 161.1382 8.3753 161.1713 8.0174 161.1866 7.6594 L 163.6231 7.6594 C 163.6917 6.824 163.746 5.5771 163.7874 3.9192 C 164.2908 3.8527 164.7279 3.7673 165.0977 3.6613 C 165.0044 5.8096 164.9572 7.1419 164.9572 7.6594 L 170.9478 7.6594 C 170.8947 8.0174 170.8604 8.3753 170.8486 8.7339 L 164.8886 8.7339 L 164.2352 22.3671 L 164.2162 23.1819 C 164.2162 24.2946 164.345 25.1024 164.605 25.6063 C 164.8638 26.1091 165.2313 26.4741 165.7039 26.699 C 166.1777 26.9239 166.6657 27.037 167.1715 27.037 C 167.5307 27.037 167.9158 27.0087 168.32 26.951 C 168.7264 26.8933 169.4224 26.7438 170.4078 26.5 L 170.4078 26.5 Z" fill="#ffffff"/>			<path d="M 177.3533 27.7529 L 176.434 24.987 L 170.038 7.66 C 170.3842 7.6735 170.656 7.6794 170.8557 7.6794 C 171.0542 7.6794 171.3271 7.6735 171.6733 7.66 L 172.4722 10.1062 L 175.5916 18.8577 L 177.7692 24.6855 C 177.9559 25.1636 178.2289 25.8395 178.5905 26.7155 L 180.5035 21.8608 L 185.8041 7.66 C 186.1373 7.6735 186.4445 7.6794 186.7258 7.6794 C 187.0188 7.6794 187.3319 7.6735 187.6663 7.66 L 192.9811 26.7379 C 196.3333 19.4759 199.1219 13.1158 201.3433 7.66 C 201.7025 7.6735 201.9755 7.6794 202.1622 7.6794 C 202.3489 7.6794 202.6147 7.6735 202.9621 7.66 L 195.2014 24.7491 L 193.9252 27.7529 C 193.4597 27.7399 193.0922 27.734 192.8264 27.734 C 192.5463 27.734 192.1741 27.7399 191.7086 27.7529 L 190.768 24.0321 L 187.2303 11.1806 C 187.1097 10.7826 186.8888 10.0873 186.5698 9.0924 L 185.9116 10.6837 L 180.1288 26.241 C 180.0497 26.44 179.8819 26.9439 179.6302 27.7529 C 179.1647 27.7399 178.783 27.734 178.4924 27.734 C 178.1863 27.734 177.8059 27.7399 177.3533 27.7529 L 177.3533 27.7529 Z" fill="#ffffff"/>			<path d="M 204.7853 9.7683 C 204.8774 9.3173 204.9519 8.8004 205.0051 8.2169 C 206.3616 7.8454 207.5396 7.59 208.5381 7.451 C 209.5365 7.3109 210.5479 7.2426 211.5724 7.2426 C 212.7575 7.2426 213.8576 7.345 214.8773 7.5499 C 215.8958 7.756 216.7266 8.101 217.3717 8.5843 C 218.0181 9.0688 218.4422 9.6222 218.6501 10.2457 C 218.8558 10.8692 218.9597 11.5062 218.9597 12.1556 C 218.9597 12.8191 218.9362 13.658 218.8889 14.6736 C 218.8428 15.6874 218.7802 16.7783 218.6998 17.9458 C 218.6207 19.1126 218.5485 20.568 218.4813 22.313 C 218.4162 24.0568 218.3831 25.3143 218.3831 26.082 L 218.3831 27.7529 C 218.037 27.7411 217.7568 27.734 217.5442 27.734 C 217.3162 27.734 217.0361 27.7411 216.7029 27.7529 C 216.8907 25.7241 217.0184 24.0804 217.0928 22.8193 C 217.1661 21.5594 217.2252 20.2041 217.2712 18.7511 C 217.3185 17.2981 217.3811 15.9429 217.4615 14.683 C 217.0491 15.0268 216.7313 15.2823 216.5126 15.4472 C 216.2928 15.6126 216.053 15.7621 215.7943 15.8946 C 215.5355 16.0259 215.2211 16.1625 214.8549 16.3008 C 214.4897 16.4409 214.1542 16.5605 213.847 16.6594 C 213.541 16.7583 212.799 16.9667 211.6208 17.2852 C 210.4452 17.6019 209.6015 17.841 209.0958 17.9999 C 207.9508 18.3702 207.067 18.7223 206.4407 19.0526 C 205.7625 19.4105 205.1976 19.8073 204.7451 20.2436 C 204.3445 20.6286 204.0527 21.0325 203.866 21.4558 C 203.6533 21.9597 203.547 22.4943 203.547 23.0654 C 203.547 23.9261 203.8069 24.6738 204.3245 25.3084 C 204.8444 25.9443 205.5002 26.3917 206.2918 26.6496 C 207.0835 26.9074 208.0383 27.037 209.1572 27.037 C 209.7161 27.037 210.2549 27.0063 210.7737 26.9475 C 211.2935 26.8886 211.7815 26.8085 212.2412 26.7084 C 212.7009 26.6084 213.3625 26.4211 214.2275 26.1421 C 214.1093 26.646 214.0089 27.15 213.9285 27.6539 C 212.8497 27.8659 211.9742 28.0025 211.303 28.0613 C 210.6306 28.1226 209.9962 28.1508 209.397 28.1508 C 208.2781 28.1508 207.2466 28.0649 206.3024 27.893 C 205.356 27.7199 204.5643 27.3831 203.9263 26.8804 C 203.287 26.3764 202.8144 25.7935 202.5084 25.1306 C 202.2023 24.4689 202.0487 23.773 202.0487 23.0442 C 202.0487 22.4872 202.142 21.9491 202.3288 21.4252 C 202.5142 20.9024 202.8014 20.4019 203.1866 19.9245 C 203.5056 19.5277 203.931 19.1562 204.4639 18.8124 C 205.0901 18.3885 205.7802 18.0311 206.5388 17.7397 C 207.4167 17.3947 208.362 17.0774 209.3711 16.7859 C 209.6511 16.7059 210.7488 16.4215 212.6642 15.9311 C 213.5291 15.7056 214.3468 15.4248 215.1184 15.0869 C 215.8912 14.7495 216.4891 14.2779 216.9144 13.6763 C 217.3386 13.0734 217.5536 12.4593 217.5536 11.8377 C 217.5536 11.3867 217.4532 10.9522 217.2535 10.5342 C 217.0538 10.1168 216.6982 9.7223 216.1865 9.3514 C 215.6749 8.9799 215.0392 8.7209 214.2819 8.5749 C 213.5233 8.4289 212.7244 8.3553 211.8867 8.3553 C 210.9154 8.3553 210.0044 8.4195 209.1525 8.5449 C 208.3018 8.6714 207.5845 8.8169 206.9984 8.9823 C 206.4147 9.1489 205.675 9.4103 204.7853 9.7683 L 204.7853 9.7683 Z" fill="#ffffff"/>			<path d="M 222.5825 27.7529 C 222.7409 24.9552 222.8945 21.6654 223.041 17.8857 C 223.1876 14.106 223.2607 11.2943 223.2607 9.4503 L 223.2395 7.66 C 223.5065 7.6735 223.7535 7.6794 223.9792 7.6794 C 224.2191 7.6794 224.4648 7.6735 224.7189 7.66 L 224.5392 11.4196 C 224.9918 10.5177 225.4113 9.8354 225.7965 9.3709 C 226.1829 8.9069 226.6331 8.5184 227.1447 8.2063 C 227.6563 7.8949 228.2554 7.6565 228.9419 7.4899 C 229.626 7.325 230.3421 7.2414 231.0865 7.2414 C 231.6324 7.2414 232.1854 7.3079 232.7443 7.4404 C 232.7443 7.8914 232.7714 8.3423 232.8246 8.7933 C 231.9313 8.5678 231.1586 8.456 230.5063 8.456 C 229.8671 8.456 229.2917 8.5425 228.7776 8.7138 C 228.2648 8.8863 227.7863 9.1383 227.3397 9.4698 C 226.8931 9.8012 226.457 10.2557 226.0305 10.8333 C 225.6039 11.4096 225.2849 12.0237 225.0721 12.6736 C 224.8063 13.4296 224.6255 14.3504 224.5334 15.4383 C 224.3915 17.1357 224.303 19.072 224.2651 21.2474 C 224.2143 24.1792 224.1871 26.347 224.1871 27.7529 C 223.8386 27.7399 223.5727 27.734 223.3849 27.734 C 223.197 27.734 222.9299 27.7399 222.5825 27.7529 L 222.5825 27.7529 Z" fill="#ffffff"/>			<path d="M 235.3273 15.0409 L 249.5419 15.0604 C 249.5289 14.1449 249.4758 13.4419 249.3824 12.9515 C 249.2891 12.4605 249.1165 11.9566 248.8625 11.4397 C 248.6096 10.9222 248.306 10.4747 247.9539 10.0974 C 247.6006 9.7188 247.1858 9.4009 246.7131 9.1413 C 246.2405 8.8834 245.71 8.6879 245.1251 8.5555 C 244.5378 8.423 243.9234 8.3565 243.2842 8.3565 C 242.5776 8.3565 241.8851 8.436 241.2057 8.5949 C 240.5251 8.7545 239.9059 8.9723 239.3459 9.2513 C 238.7858 9.5298 238.2624 9.8854 237.7767 10.3158 C 237.2899 10.7473 236.8905 11.2142 236.5774 11.7181 C 236.2643 12.2221 236.0244 12.7031 235.8578 13.16 C 235.6912 13.618 235.5151 14.245 235.3273 15.0409 L 235.3273 15.0409 ZM 249.3021 25.7841 C 249.1957 26.281 249.1165 26.7861 249.0634 27.296 C 247.9586 27.6139 246.9672 27.8365 246.0892 27.9624 C 245.2102 28.0884 244.311 28.1508 243.3929 28.1508 C 241.7953 28.1508 240.381 27.9366 239.1509 27.5056 C 237.9197 27.0758 236.8646 26.3587 235.9866 25.3579 C 235.1086 24.3582 234.4812 23.2349 234.1102 21.9892 C 233.738 20.744 233.5513 19.4188 233.5513 18.014 C 233.5513 16.1731 233.8704 14.4463 234.5096 12.8367 C 235.1489 11.2271 236.1993 9.8925 237.6645 8.8316 C 239.1285 7.7719 240.9446 7.2426 243.114 7.2426 C 244.604 7.2426 245.9557 7.5169 247.1657 8.0668 C 248.378 8.6179 249.3198 9.5163 249.9909 10.7632 C 250.6632 12.0096 251 13.489 251 15.1999 C 251 15.5184 250.987 15.8234 250.9598 16.1154 L 235.1489 16.1348 C 235.0803 16.9955 235.0496 17.6443 235.0496 18.0806 C 235.0496 19.3393 235.2351 20.5574 235.6085 21.7348 C 235.9807 22.9135 236.5431 23.899 237.297 24.6938 C 238.0497 25.4886 238.9536 26.0773 240.0064 26.4612 C 241.0592 26.845 242.1722 27.037 243.3444 27.037 C 245.131 27.037 247.1161 26.619 249.3021 25.7841 L 249.3021 25.7841 Z" fill="#ffffff"/>			<path d="M 136.0316 33.8686 C 136.0256 33.5695 135.9761 33.3034 135.8839 33.0703 C 135.7917 32.8383 135.6357 32.6393 135.4171 32.4769 C 135.1974 32.3108 134.9327 32.2296 134.6255 32.2296 C 134.212 32.2296 133.861 32.3779 133.5715 32.6747 C 133.2844 32.9714 133.1213 33.3682 133.087 33.8686 L 136.0316 33.8686 ZM 136.0801 35.4935 L 136.854 35.6513 C 136.7134 36.1082 136.4369 36.4849 136.0269 36.784 C 135.6168 37.0831 135.1336 37.2326 134.5782 37.2326 C 133.8456 37.2326 133.2525 36.9759 132.7999 36.4626 C 132.3474 35.9492 132.1217 35.2757 132.1217 34.4432 C 132.1217 33.5931 132.3556 32.9054 132.8271 32.3815 C 133.2974 31.8575 133.8882 31.5949 134.5995 31.5949 C 135.3002 31.5949 135.8638 31.8375 136.2892 32.3202 C 136.7169 32.803 136.9343 33.526 136.945 34.488 L 133.0504 34.488 C 133.0504 35.2957 133.2194 35.8409 133.5585 36.1223 C 133.8988 36.4049 134.2581 36.5462 134.6362 36.5462 C 135.3191 36.5462 135.8011 36.1953 136.0801 35.4935 L 136.0801 35.4935 Z" fill="#ffffff"/>			<path d="M 148.553 37.0854 L 147.7401 37.0854 L 147.7401 33.7626 C 147.7401 33.4223 147.7164 33.1657 147.6691 32.9937 C 147.6207 32.823 147.5049 32.6664 147.3206 32.5239 C 147.1363 32.3803 146.9294 32.3096 146.7003 32.3096 C 146.3812 32.3096 146.074 32.4545 145.7786 32.7453 C 145.4844 33.0361 145.3367 33.48 145.3367 34.0758 L 145.3367 37.0854 L 144.5297 37.0854 L 144.5297 33.5684 C 144.5297 33.0985 144.4162 32.7677 144.1917 32.5746 C 143.9684 32.3803 143.7321 32.2826 143.484 32.2826 C 143.1295 32.2826 142.8223 32.4345 142.5612 32.7371 C 142.2976 33.0408 142.1676 33.4259 142.1676 33.891 L 142.1676 37.0854 L 141.3712 37.0854 L 141.3712 31.7433 L 142.0873 31.7433 L 142.0873 32.77 C 142.4879 31.987 143.0385 31.5949 143.7391 31.5949 C 144.1244 31.5949 144.4517 31.7209 144.7198 31.9705 C 144.9893 32.2213 145.1619 32.5228 145.241 32.8748 C 145.6084 32.0224 146.1721 31.5949 146.933 31.5949 C 147.2982 31.5949 147.6172 31.6985 147.8914 31.9081 C 148.1666 32.1154 148.3439 32.3544 148.4277 32.624 C 148.5116 32.8937 148.553 33.274 148.553 33.7626 L 148.553 37.0854 Z" fill="#ffffff"/>			<path d="M 154.1313 33.6425 L 154.1313 35.1497 C 154.1846 35.5536 154.3558 35.888 154.6454 36.1505 C 154.936 36.4143 155.2385 36.5462 155.5527 36.5462 C 155.9179 36.5462 156.2393 36.386 156.5217 36.0693 C 156.8029 35.7526 156.9435 35.2039 156.9435 34.4244 C 156.9435 33.7509 156.8159 33.2328 156.5619 32.8666 C 156.3067 32.5016 155.9687 32.3202 155.5481 32.3202 C 155.2149 32.3202 154.9171 32.4486 154.6536 32.7053 C 154.3901 32.9631 154.2152 33.2764 154.1313 33.6425 L 154.1313 33.6425 ZM 154.1313 38.8881 L 153.2971 38.8881 L 153.2971 31.7433 L 154.051 31.7433 L 154.051 32.7806 C 154.4291 31.9906 154.9927 31.5949 155.7407 31.5949 C 156.374 31.5949 156.8845 31.8587 157.2732 32.3874 C 157.6619 32.9137 157.8557 33.5825 157.8557 34.3902 C 157.8557 35.2615 157.6561 35.9539 157.2567 36.4649 C 156.8572 36.9771 156.3433 37.2326 155.717 37.2326 C 155.0458 37.2326 154.5165 36.9135 154.1313 36.2753 L 154.1313 38.8881 Z" fill="#ffffff"/>			<path d="M 162.2761 37.0854 L 163.1091 37.0854 L 163.1091 29.8664 L 162.2761 29.8664 L 162.2761 37.0854 Z" fill="#ffffff"/>			<path d="M 169.9341 36.5462 C 170.3606 36.5462 170.715 36.3707 171.0034 36.0222 C 171.2881 35.6725 171.4323 35.1297 171.4323 34.3938 C 171.4323 33.6531 171.2811 33.115 170.9809 32.783 C 170.6808 32.4498 170.3275 32.2826 169.9246 32.2826 C 169.511 32.2826 169.1601 32.4509 168.8729 32.7877 C 168.5881 33.1245 168.444 33.6578 168.444 34.3879 C 168.444 35.1603 168.5881 35.7125 168.8729 36.0469 C 169.1601 36.379 169.5134 36.5462 169.9341 36.5462 L 169.9341 36.5462 ZM 169.8715 37.2326 C 169.1365 37.2326 168.561 36.9618 168.1486 36.4178 C 167.7374 35.8738 167.5319 35.2003 167.5319 34.3961 C 167.5319 33.5448 167.7623 32.8654 168.2266 32.3579 C 168.6898 31.8493 169.2664 31.5949 169.9565 31.5949 C 170.6962 31.5949 171.2787 31.8622 171.7053 32.3979 C 172.1306 32.9325 172.3445 33.6001 172.3445 34.4008 C 172.3445 35.2333 172.1152 35.9139 171.6556 36.4426 C 171.1948 36.9689 170.6005 37.2326 169.8715 37.2326 L 169.8715 37.2326 Z" fill="#ffffff"/>			<path d="M 180.2755 31.7433 L 178.126 37.7095 C 177.8141 38.569 177.3155 39 176.6337 39 C 176.4175 39 176.1776 38.9623 175.9164 38.8881 L 175.9164 38.237 C 176.1327 38.2865 176.317 38.3124 176.473 38.3124 C 176.7388 38.3124 176.961 38.2358 177.1406 38.0839 C 177.3167 37.932 177.4963 37.5635 177.6735 36.9759 L 175.8196 31.7433 L 176.6656 31.7433 L 178.106 35.7573 L 179.5723 31.7433 L 180.2755 31.7433 Z" fill="#ffffff"/>			<path d="M 187.6202 33.8686 C 187.6132 33.5695 187.5635 33.3034 187.4713 33.0703 C 187.3792 32.8383 187.2231 32.6393 187.0034 32.4769 C 186.786 32.3108 186.5213 32.2296 186.213 32.2296 C 185.7994 32.2296 185.4472 32.3779 185.1589 32.6747 C 184.8718 32.9714 184.7087 33.3682 184.6757 33.8686 L 187.6202 33.8686 ZM 187.6674 35.4935 L 188.4414 35.6513 C 188.302 36.1082 188.0255 36.4849 187.6143 36.784 C 187.2042 37.0831 186.7198 37.2326 186.1645 37.2326 C 185.433 37.2326 184.8399 36.9759 184.3874 36.4626 C 183.9336 35.9492 183.7079 35.2757 183.7079 34.4432 C 183.7079 33.5931 183.9443 32.9054 184.4146 32.3815 C 184.8848 31.8575 185.4756 31.5949 186.1881 31.5949 C 186.8876 31.5949 187.4513 31.8375 187.8778 32.3202 C 188.3044 32.803 188.5229 33.526 188.5324 34.488 L 184.6378 34.488 C 184.6378 35.2957 184.8056 35.8409 185.1472 36.1223 C 185.4863 36.4049 185.8455 36.5462 186.2224 36.5462 C 186.9066 36.5462 187.3874 36.1953 187.6674 35.4935 L 187.6674 35.4935 Z" fill="#ffffff"/>			<path d="M 196.4503 33.8686 C 196.4432 33.5695 196.3936 33.3034 196.3026 33.0703 C 196.2092 32.8383 196.0533 32.6393 195.8347 32.4769 C 195.616 32.3108 195.3514 32.2296 195.043 32.2296 C 194.6295 32.2296 194.2785 32.3779 193.9902 32.6747 C 193.7031 32.9714 193.54 33.3682 193.5058 33.8686 L 196.4503 33.8686 ZM 196.4988 35.4935 L 197.2739 35.6513 C 197.1321 36.1082 196.8556 36.4849 196.4456 36.784 C 196.0356 37.0831 195.5511 37.2326 194.9957 37.2326 C 194.2643 37.2326 193.6712 36.9759 193.2174 36.4626 C 192.7649 35.9492 192.5392 35.2757 192.5392 34.4432 C 192.5392 33.5931 192.7744 32.9054 193.2458 32.3815 C 193.7149 31.8575 194.3069 31.5949 195.0182 31.5949 C 195.7189 31.5949 196.2813 31.8375 196.7079 32.3202 C 197.1344 32.803 197.353 33.526 197.3636 34.488 L 193.468 34.488 C 193.468 35.2957 193.6369 35.8409 193.9772 36.1223 C 194.3163 36.4049 194.6755 36.5462 195.0549 36.5462 C 195.7366 36.5462 196.2199 36.1953 196.4988 35.4935 L 196.4988 35.4935 Z" fill="#ffffff"/>			<path d="M 209.6641 36.5462 C 210.0906 36.5462 210.4464 36.3707 210.7335 36.0222 C 211.0182 35.6725 211.1624 35.1297 211.1624 34.3938 C 211.1624 33.6531 211.0111 33.115 210.7111 32.783 C 210.4109 32.4498 210.0576 32.2826 209.6547 32.2826 C 209.2411 32.2826 208.8901 32.4509 208.6042 32.7877 C 208.3183 33.1245 208.1741 33.6578 208.1741 34.3879 C 208.1741 35.1603 208.3183 35.7125 208.6042 36.0469 C 208.8901 36.379 209.2435 36.5462 209.6641 36.5462 L 209.6641 36.5462 ZM 209.6015 37.2326 C 208.8666 37.2326 208.2911 36.9618 207.8787 36.4178 C 207.4675 35.8738 207.2619 35.2003 207.2619 34.3961 C 207.2619 33.5448 207.4923 32.8654 207.9567 32.3579 C 208.4199 31.8493 208.9965 31.5949 209.6866 31.5949 C 210.4263 31.5949 211.0087 31.8622 211.4354 32.3979 C 211.8607 32.9325 212.0746 33.6001 212.0746 34.4008 C 212.0746 35.2333 211.8454 35.9139 211.3857 36.4426 C 210.926 36.9689 210.3306 37.2326 209.6015 37.2326 L 209.6015 37.2326 Z" fill="#ffffff"/>			<path d="M 222.5364 31.7433 L 220.9921 37.0854 L 220.3162 37.0854 L 219.1205 33.1186 L 218.0215 37.0854 L 217.3362 37.0854 L 215.7257 31.7433 L 216.5623 31.7433 L 217.7297 35.7255 L 218.8439 31.7433 L 219.4525 31.7433 L 220.6589 35.7419 L 221.8641 31.7433 L 222.5364 31.7433 Z" fill="#ffffff"/>			<path d="M 230.9731 37.0854 L 230.1944 37.0854 L 230.1944 33.6519 C 230.1944 33.1586 230.0869 32.8124 229.8695 32.6111 C 229.6533 32.4109 229.3933 32.3096 229.0848 32.3096 C 228.6607 32.3096 228.3038 32.4792 228.0155 32.8171 C 227.7272 33.1551 227.5831 33.6013 227.5831 34.1547 L 227.5831 37.0854 L 226.7488 37.0854 L 226.7488 31.7433 L 227.5251 31.7433 L 227.5251 32.7276 C 227.9589 31.9729 228.5236 31.5949 229.2172 31.5949 C 229.6166 31.5949 229.9581 31.6985 230.2393 31.9046 C 230.5193 32.1118 230.7119 32.3426 230.8171 32.5993 C 230.9211 32.8572 230.9731 33.3234 230.9731 33.9969 L 230.9731 37.0854 Z" fill="#ffffff"/>			<path d="M 239.3069 33.8686 C 239.2986 33.5695 239.249 33.3034 239.158 33.0703 C 239.0659 32.8383 238.9099 32.6393 238.6901 32.4769 C 238.4715 32.3108 238.208 32.2296 237.8996 32.2296 C 237.4849 32.2296 237.1339 32.3779 236.8456 32.6747 C 236.5573 32.9714 236.3954 33.3682 236.3611 33.8686 L 239.3069 33.8686 ZM 239.3541 35.4935 L 240.1281 35.6513 C 239.9875 36.1082 239.7122 36.4849 239.2998 36.784 C 238.8898 37.0831 238.4065 37.2326 237.8512 37.2326 C 237.1185 37.2326 236.5254 36.9759 236.0729 36.4626 C 235.6191 35.9492 235.3934 35.2757 235.3934 34.4432 C 235.3934 33.5931 235.631 32.9054 236.1 32.3815 C 236.5703 31.8575 237.1611 31.5949 237.8736 31.5949 C 238.5731 31.5949 239.1368 31.8375 239.5645 32.3202 C 239.9899 32.803 240.2096 33.526 240.2191 34.488 L 236.3234 34.488 C 236.3234 35.2957 236.4923 35.8409 236.8339 36.1223 C 237.1718 36.4049 237.5309 36.5462 237.9091 36.5462 C 238.592 36.5462 239.0741 36.1953 239.3541 35.4935 L 239.3541 35.4935 Z" fill="#ffffff"/>			<path d="M 247.9999 33.8062 C 247.9999 33.3376 247.8558 32.9608 247.5698 32.6794 C 247.2827 32.3979 246.9483 32.2567 246.5678 32.2567 C 246.1519 32.2567 245.8116 32.4403 245.5457 32.8065 C 245.2775 33.1727 245.144 33.6885 245.144 34.3514 C 245.144 35.0661 245.2668 35.6113 245.5126 35.9845 C 245.7596 36.3589 246.0964 36.5462 246.5241 36.5462 C 246.914 36.5462 247.2579 36.3825 247.5532 36.0587 C 247.851 35.7337 247.9999 35.3546 247.9999 34.9165 L 247.9999 33.8062 ZM 248.8329 29.8664 L 248.8329 37.0843 L 248.0803 37.0843 L 248.0803 36.1694 C 247.7021 36.8782 247.1385 37.2326 246.3823 37.2326 C 245.7572 37.2326 245.2421 36.9712 244.838 36.4473 C 244.4338 35.9233 244.233 35.2604 244.233 34.4585 C 244.233 33.6414 244.4303 32.9584 244.8309 32.4133 C 245.2303 31.8669 245.762 31.5949 246.4225 31.5949 C 247.0665 31.5949 247.5923 31.8881 247.9999 32.4721 L 247.9999 29.8664 L 248.8329 29.8664 Z" fill="#ffffff"/>			<path d="M 0 7.8107 L 0 12.165 L 2.2539 14.2662 L 2.2539 12.165 L 14.9685 12.165 L 14.9685 7.8107 L 0 7.8107 Z" fill="#ffffff"/>			<path d="M 5.5234 27.9589 L 9.8935 27.9589 L 12.0027 25.7123 L 9.8935 25.7123 L 9.8935 13.0446 L 5.5234 13.0446 L 5.5234 27.9589 Z" fill="#ffffff"/>			<path d="M 26.0867 21.7172 L 26.0867 17.3623 L 23.834 15.2617 L 23.834 17.3623 L 11.12 17.3623 L 11.12 21.7172 L 26.0867 21.7172 Z" fill="#ffffff"/>			<path d="M 20.5639 1.569 L 16.195 1.569 L 14.0847 3.8162 L 16.195 3.8162 L 16.195 16.4845 L 20.5639 16.4845 L 20.5639 1.569 Z" fill="#ffffff"/>			<path d="M 11.2465 14.3627 L 14.8763 14.3627 L 14.8763 13.9742 L 11.2465 13.9742 L 11.2465 14.3627 Z" fill="#ffffff"/>			<path d="M 11.2465 15.6467 L 14.8763 15.6467 L 14.8763 15.2588 L 11.2465 15.2588 L 11.2465 15.6467 Z" fill="#ffffff"/>			<path d="M 12.2207 16.6176 L 12.6112 16.6176 L 12.6112 13.0016 L 12.2207 13.0016 L 12.2207 16.6176 Z" fill="#ffffff"/>			<path d="M 13.5104 16.6176 L 13.9015 16.6176 L 13.9015 13.0016 L 13.5104 13.0016 L 13.5104 16.6176 Z" fill="#ffffff"/>		</g>	</g></svg>